PathFileType	4	(X/Y/Z)	HSS_squat5.trc
DataRate	CameraRate	NumFrames	NumMarkers	Units	OrigDataRate	OrigDataStartFrame	OrigNumFrames
120.0	120.0	4	44	mm	120.0	246	980
Frame#	Time		R.Shoulder		Offset		L.Shoulder		R.Elbow		R.Wrist.Radial		R.Wrist		R.Hand		L.Elbow		L.Wrist.Radial		L.Wrist		L.Hand		R.Hip		V.Sacral		L.PSIS		L.Hip		R.Thigh.Upper		R.Thigh.Front		R.Thigh.Rear		X.Shell.Lower.Thigh.Right		R.Knee.Lateral		R.Shank.Upper		R.Shank.Front		R.Shank.Rear		X.Shell.Lower.Shank.Right		R.Ankle.Lateral		R.Heel		R.Toe		L.Thigh.Upper		L.Thigh.Front		L.Thigh.Rear		X.Shell.Lower.Thigh.Left		L.Knee.Lateral		L.Shank.Upper		L.Shank.Front		L.Shank.Rear		X.Shell.Lower.Shank.Left		L.Ankle.Lateral		L.Heel		L.Toe		R.Troc		L.Troc		R.PSIS		L.ASIS		R.ASIS
			X1	Y1	Z1	X2	Y2	Z2	X3	Y3	Z3	X4	Y4	Z4	X5	Y5	Z5	X6	Y6	Z6	X7	Y7	Z7	X8	Y8	Z8	X9	Y9	Z9	X10	Y10	Z10	X11	Y11	Z11	X12	Y12	Z12	X13	Y13	Z13	X14	Y14	Z14	X15	Y15	Z15	X16	Y16	Z16	X17	Y17	Z17	X18	Y18	Z18	X19	Y19	Z19	X20	Y20	Z20	X21	Y21	Z21	X22	Y22	Z22	X23	Y23	Z23	X24	Y24	Z24	X25	Y25	Z25	X26	Y26	Z26	X27	Y27	Z27	X28	Y28	Z28	X29	Y29	Z29	X30	Y30	Z30	X31	Y31	Z31	X32	Y32	Z32	X33	Y33	Z33	X34	Y34	Z34	X35	Y35	Z35	X36	Y36	Z36	X37	Y37	Z37	X38	Y38	Z38	X39	Y39	Z39	X40	Y40	Z40	X41	Y41	Z41	X42	Y42	Z42	X43	Y43	Z43	X44	Y44	Z44

246	2.04167	138.02322	1484.27661	-74.53426	-143.04184	1385.23767	30.65028	-191.22267	1499.05444	-84.42093	308.99240	1335.91138	-349.56241	82.92413	1392.36780	-444.27075	103.29246	1428.01965	-508.97812	16.83748	1432.19263	-527.55707	-366.65366	1364.48230	-367.08505	-117.34888	1379.71301	-465.50931	-148.85315	1427.32239	-508.55338	-61.07612	1414.80554	-517.86646	123.47913	1032.86121	-134.13051	-28.65366	1020.27069	-18.67114	-69.06234	1025.75806	-21.75609	-175.35182	1032.74292	-140.76758	178.56978	696.53278	-169.07030	167.26204	657.36224	-202.45775	189.92767	659.32129	-144.94380	176.33408	624.85938	-172.47191	169.65588	518.44794	-109.05872	230.60191	379.07697	-89.65771	213.34029	333.81555	-119.28130	220.44452	341.15445	-58.80014	217.84528	300.64423	-82.75444	190.01669	71.95422	-81.20901	142.23341	33.06461	-41.37827	201.83884	31.59296	-237.30331	-221.90224	696.16827	-185.63432	-204.33926	644.70734	-204.76770	-238.95335	661.80396	-154.99942	-230.07202	625.99213	-180.70319	-217.45146	510.44348	-112.07674	-274.63782	316.08838	-78.23383	-261.45880	291.15646	-106.92040	-263.85764	275.59610	-48.78102	-269.94083	245.61156	-71.96294	-240.93312	75.60248	-94.56557	-196.78383	34.47776	-41.51784	-241.46588	32.64141	-240.61671	161.40741	900.03528	-143.06897	-213.83624	904.21039	-140.66309	14.71296	1022.54321	-18.58013	-132.85747	999.51398	-206.41872	91.89598	996.27179	-196.54930
247	2.05000	138.04388	1484.27844	-74.50114	-143.02641	1385.24402	30.69946	-191.20256	1499.05188	-84.34442	309.00583	1335.94043	-349.49362	82.95220	1392.37122	-444.23856	103.33081	1428.08252	-508.90991	16.82614	1432.23645	-527.53125	-366.64948	1364.51929	-367.03806	-117.33871	1379.77307	-465.47339	-148.86560	1427.35339	-508.53494	-61.08025	1414.83911	-517.85626	123.47747	1032.85901	-134.12405	-28.67044	1020.27112	-18.62711	-69.06082	1025.76196	-21.69506	-175.35190	1032.73999	-140.72536	178.55261	696.51947	-169.04367	167.25012	657.37610	-202.41768	189.92967	659.30481	-144.94560	176.34357	624.85455	-172.45940	169.68288	518.44000	-109.05878	230.59674	379.07504	-89.66286	213.35765	333.82233	-119.26097	220.43709	341.15552	-58.75970	217.83900	300.63129	-82.74871	190.01570	71.94046	-81.20463	142.22188	33.06488	-41.35963	201.85258	31.58742	-237.28537	-221.90195	696.16888	-185.60280	-204.34132	644.71814	-204.75478	-238.92213	661.79773	-154.96745	-230.05843	625.99774	-180.65602	-217.45433	510.44748	-112.04910	-274.64145	316.07928	-78.19103	-261.45117	291.16284	-106.90536	-263.86215	275.60547	-48.76899	-269.94299	245.61908	-71.95721	-240.93033	75.60041	-94.55048	-196.78017	34.48239	-41.52156	-241.45988	32.64758	-240.62749	161.40393	900.02515	-143.04335	-213.84462	904.19702	-140.65840	14.71349	1022.54419	-18.55784	-132.87068	999.49341	-206.35873	91.89813	996.27155	-196.51422
248	2.05833	138.07661	1484.28247	-74.46842	-143.00903	1385.23413	30.74041	-191.17915	1499.05713	-84.31075	309.00098	1335.99744	-349.46579	82.93847	1392.45483	-444.19244	103.31276	1428.13464	-508.88254	16.86580	1432.30115	-527.47406	-366.64206	1364.53967	-366.97742	-117.31982	1379.83301	-465.38229	-148.85118	1427.38928	-508.52972	-61.10312	1414.86938	-517.83228	123.48621	1032.84058	-134.07965	-28.67984	1020.26654	-18.58717	-69.06454	1025.75427	-21.64311	-175.35965	1032.74707	-140.70470	178.53069	696.53741	-169.04092	167.24261	657.37787	-202.39107	189.92313	659.30353	-144.89784	176.34402	624.86420	-172.44072	169.66432	518.45331	-109.02650	230.60385	379.08090	-89.61460	213.35832	333.82529	-119.23915	220.43933	341.14828	-58.74655	217.83777	300.63382	-82.72500	190.01184	71.93821	-81.18359	142.21361	33.06790	-41.37028	201.84024	31.60276	-237.30516	-221.89360	696.16901	-185.58772	-204.32448	644.72968	-204.71371	-238.92142	661.79846	-154.94577	-230.05684	625.99390	-180.64079	-217.45520	510.44913	-112.01154	-274.64185	316.07889	-78.17497	-261.46570	291.16876	-106.84859	-263.86462	275.60794	-48.75779	-269.94086	245.61655	-71.91585	-240.91348	75.59208	-94.55231	-196.78781	34.48046	-41.53381	-241.45862	32.66397	-240.65083	161.41599	900.04395	-143.02827	-213.83763	904.19440	-140.61765	14.73123	1022.53412	-18.51723	-132.86716	999.49133	-206.33340	91.91015	996.26593	-196.49413
249	2.06667	138.11046	1484.26843	-74.41814	-143.00310	1385.23218	30.78241	-191.16766	1499.06641	-84.26980	309.01950	1336.04272	-349.44205	82.94006	1392.48352	-444.16962	103.31651	1428.19873	-508.83951	16.88238	1432.35327	-527.44080	-366.62292	1364.57703	-366.95609	-117.28974	1379.90442	-465.39529	-148.83813	1427.44592	-508.47864	-61.08469	1414.92200	-517.80121	123.48524	1032.85754	-134.04042	-28.69958	1020.26410	-18.50895	-69.08430	1025.76172	-21.58236	-175.34914	1032.72803	-140.69659	178.53636	696.51331	-168.99081	167.25375	657.38379	-202.39595	189.89725	659.31348	-144.88312	176.33954	624.86847	-172.42934	169.67540	518.44751	-109.01637	230.59167	379.07401	-89.61330	213.34709	333.82166	-119.23331	220.43681	341.14938	-58.72338	217.83000	300.62628	-82.72252	190.02885	71.93642	-81.21454	142.23064	33.05610	-41.36437	201.83974	31.61621	-237.29836	-221.87393	696.16370	-185.55511	-204.30693	644.71045	-204.70085	-238.91924	661.79205	-154.92101	-230.04326	625.99628	-180.62587	-217.43980	510.45035	-112.02771	-274.63885	316.08127	-78.17363	-261.46384	291.15814	-106.85014	-263.86902	275.60068	-48.72886	-269.94684	245.62239	-71.90118	-240.92227	75.59088	-94.54803	-196.78970	34.48588	-41.50174	-241.44427	32.64413	-240.63655	161.41417	900.01941	-142.96446	-213.84850	904.19067	-140.59401	14.72560	1022.53595	-18.51926	-132.86644	999.51105	-206.33179	91.88960	996.27057	-196.48849
